<?xml version="1.0" standalone="no"?>
<!DOCTYPE svg PUBLIC "-//W3C//DTD SVG 20010904//EN"
 "http://www.w3.org/TR/2001/REC-SVG-20010904/DTD/svg10.dtd">
<svg version="1.0" xmlns="http://www.w3.org/2000/svg"
 width="754.000000pt" height="754.000000pt" viewBox="0 0 754.000000 754.000000"
 preserveAspectRatio="xMidYMid meet">
<metadata>
Created by potrace 1.14, written by Peter Selinger 2001-2017
</metadata>
<g transform="translate(0.000000,754.000000) scale(0.100000,-0.100000)"
fill="#000000" stroke="none">
<path d="M4449 7085 c-3 -63 -48 -168 -110 -259 -63 -95 -211 -224 -329 -287
-25 -13 -47 -27 -50 -30 -15 -17 -351 -151 -410 -164 -3 0 -28 -9 -56 -18 -28
-10 -59 -19 -70 -22 -10 -2 -73 -20 -139 -40 -66 -19 -129 -37 -140 -40 -44
-9 -235 -67 -320 -96 -49 -17 -94 -32 -100 -34 -11 -2 -15 -4 -127 -51 -42
-17 -79 -29 -82 -26 -4 3 -6 1 -6 -5 0 -5 -24 -20 -52 -33 -29 -13 -82 -41
-117 -62 -34 -21 -65 -38 -67 -38 -3 0 -10 -4 -17 -10 -7 -5 -48 -37 -93 -70
-133 -99 -279 -263 -342 -384 -14 -28 -29 -53 -32 -56 -6 -6 -55 -118 -65
-150 -8 -27 -27 -96 -27 -97 1 -2 -4 -17 -9 -35 -6 -18 -12 -46 -14 -63 -2
-16 -7 -50 -11 -75 -18 -115 -6 -345 25 -480 54 -236 188 -494 336 -644 l66
-66 -43 -19 c-51 -21 -95 -33 -173 -46 -16 -3 -41 -7 -55 -10 -103 -19 -459
-26 -580 -11 -36 4 -79 10 -97 11 -18 2 -40 6 -50 9 -10 2 -34 7 -53 10 -33 6
-106 23 -165 40 -5 2 -23 6 -40 10 -16 5 -44 14 -62 22 -17 8 -36 14 -41 14
-6 0 -23 6 -39 14 -15 8 -53 27 -83 42 -80 39 -170 95 -170 105 0 5 -5 9 -11
9 -6 0 -39 24 -73 52 -53 46 -232 204 -246 218 -3 3 -15 13 -27 23 -21 18 -21
18 -16 -2 3 -11 11 -26 19 -32 8 -6 14 -16 14 -21 0 -5 6 -15 13 -22 6 -7 28
-32 47 -56 39 -48 117 -124 152 -148 13 -9 25 -19 28 -22 11 -12 130 -90 139
-90 5 0 11 -4 13 -8 4 -10 217 -121 243 -127 6 -1 30 -11 55 -22 25 -11 74
-30 110 -42 36 -13 74 -27 85 -31 27 -10 173 -51 205 -56 14 -3 33 -7 42 -10
28 -8 59 -14 158 -29 92 -14 391 -14 450 -1 14 4 39 8 55 10 46 6 189 37 198
43 4 2 19 7 33 9 27 5 149 46 243 83 30 11 56 19 57 18 2 -1 -16 -23 -38 -47
-63 -70 -156 -197 -206 -283 -25 -43 -49 -80 -54 -83 -4 -3 -8 -14 -8 -25 0
-10 -4 -19 -9 -19 -5 0 -12 -10 -16 -22 -8 -27 -6 -20 -34 -83 -65 -144 -130
-349 -147 -465 -3 -19 -7 -42 -10 -50 -8 -29 -17 -145 -18 -227 -1 -46 -5 -83
-9 -83 -5 0 -6 -4 -3 -9 3 -5 8 -50 11 -100 3 -50 10 -114 15 -142 6 -29 10
-53 10 -54 0 -7 -51 -1 -56 6 -3 5 -13 9 -22 9 -21 0 -138 47 -212 86 -30 15
-58 27 -62 26 -5 -1 -8 3 -8 8 0 6 -5 10 -11 10 -9 0 -114 60 -144 83 -5 4
-39 26 -75 49 -36 23 -70 47 -77 53 -24 20 -38 31 -73 55 -40 28 -59 45 -184
155 -129 115 -317 308 -364 376 -9 13 -25 33 -35 44 -26 29 -148 197 -155 215
-3 8 -8 17 -12 20 -11 9 -76 122 -118 205 -54 107 -73 151 -127 289 -53 139
-81 177 -75 106 1 -24 72 -261 93 -310 5 -14 11 -32 13 -40 2 -8 7 -23 13 -35
6 -11 29 -63 51 -115 113 -261 299 -558 487 -779 41 -48 231 -239 279 -281 99
-87 282 -212 404 -278 130 -71 280 -142 380 -180 73 -27 257 -91 280 -97 8 -2
68 -17 133 -34 65 -17 132 -33 150 -36 18 -3 39 -8 47 -10 15 -4 24 -6 110
-20 25 -4 54 -9 65 -11 11 -2 45 -6 75 -10 30 -3 66 -7 80 -10 14 -3 41 -7 60
-8 19 -2 76 -7 125 -12 175 -15 750 -8 915 12 25 3 65 7 90 9 25 2 65 7 90 10
25 3 63 8 85 11 41 5 64 8 125 18 19 3 51 8 70 10 19 3 46 8 60 11 14 3 39 7
55 9 17 3 50 9 75 15 25 5 56 12 70 14 143 27 129 23 250 56 88 24 255 83 299
105 17 9 33 16 36 17 3 0 25 8 51 19 25 11 49 20 52 20 4 1 25 9 47 20 22 11
46 19 53 20 6 0 12 5 12 10 0 6 9 10 20 10 11 0 20 4 20 8 0 5 6 9 13 9 6 0
41 14 77 30 36 17 99 45 140 63 68 30 102 47 225 113 45 25 160 99 190 123 11
9 30 21 43 27 12 5 22 14 22 19 0 4 6 8 14 8 8 0 16 3 18 8 2 4 46 38 98 77
52 38 104 77 115 87 28 24 252 200 278 218 19 13 104 76 132 98 58 46 29 7
-54 -72 -29 -28 -77 -74 -107 -102 -29 -28 -85 -80 -125 -115 -40 -35 -80 -71
-89 -79 -16 -15 -41 -34 -169 -132 -42 -32 -85 -65 -96 -74 -11 -9 -30 -21
-42 -27 -13 -5 -23 -14 -23 -19 0 -4 -6 -8 -14 -8 -8 0 -16 -4 -18 -8 -4 -10
-96 -72 -108 -72 -4 0 -10 -4 -12 -8 -3 -8 -160 -104 -283 -172 -161 -89 -539
-268 -575 -272 -3 0 -30 -11 -60 -25 -105 -47 -484 -168 -590 -189 -14 -3 -41
-9 -60 -14 -78 -20 -259 -55 -339 -66 -25 -3 -57 -8 -71 -10 -14 -2 -52 -6
-85 -10 -33 -3 -71 -7 -83 -9 -140 -23 -872 -23 -1042 -1 -81 11 -118 17 -140
21 -26 5 -191 35 -225 41 -11 2 -33 6 -50 9 -16 3 -68 12 -115 21 -47 9 -90
17 -97 19 -8 3 -10 -2 -6 -13 13 -36 86 -167 94 -170 5 -2 9 -8 9 -13 0 -8 32
-52 95 -128 24 -30 150 -164 187 -200 76 -75 111 -104 192 -165 124 -92 314
-185 491 -240 66 -20 212 -57 245 -61 14 -2 44 -6 67 -9 93 -15 111 -17 178
-23 129 -12 440 -6 535 11 14 2 59 10 100 16 90 15 81 13 205 45 55 14 108 27
118 30 9 2 22 7 27 10 5 3 18 8 27 10 51 10 213 78 333 139 122 62 152 79 167
93 7 6 22 15 33 18 11 3 20 11 20 16 0 6 4 8 9 5 5 -4 11 -3 13 1 1 5 66 50
143 102 77 52 193 133 259 180 65 47 126 91 135 96 9 6 18 12 21 15 3 3 61 50
130 105 122 97 142 113 245 205 73 65 261 256 325 329 30 35 60 69 65 75 29
32 125 156 125 160 0 6 24 37 48 61 6 8 12 18 12 23 0 5 9 17 20 27 11 10 20
24 20 32 0 7 5 13 10 13 6 0 10 4 10 10 0 5 15 31 33 57 19 27 48 73 66 103
17 30 37 64 44 75 108 174 437 816 452 880 1 6 7 24 14 40 15 36 41 111 47
134 2 9 8 34 14 56 18 65 30 164 23 178 -3 4 -15 -2 -28 -15 -78 -78 -259
-182 -355 -203 -3 -1 -25 -7 -50 -14 -25 -7 -56 -15 -70 -17 -14 -3 -30 -6
-37 -9 -6 -2 -49 -7 -95 -11 -213 -19 -402 -1 -656 62 -59 14 -115 27 -124 29
-9 2 -26 8 -37 14 -11 6 -24 10 -28 10 -4 -1 -15 0 -23 4 -8 3 -69 23 -135 45
-109 36 -267 93 -305 109 -8 3 -17 7 -20 8 -3 1 -14 5 -25 10 -97 39 -280 110
-370 145 -60 23 -124 48 -140 55 -37 17 -471 162 -505 169 -29 6 -60 13 -92
22 -13 3 -38 8 -55 11 -18 3 -33 8 -33 12 0 3 11 23 25 43 14 20 25 40 25 43
0 3 10 22 23 43 13 20 35 66 51 102 15 36 31 74 36 85 13 29 55 142 75 200 9
28 20 57 23 65 7 20 6 17 47 153 19 65 37 128 39 140 2 12 10 45 16 72 15 63
19 84 24 126 3 19 5 34 6 34 1 0 3 14 5 30 2 17 7 50 11 75 16 98 9 521 -10
625 -2 11 -7 47 -11 80 -4 32 -8 66 -10 75 -1 8 -6 35 -10 60 -4 25 -9 54 -11
65 -2 11 -7 36 -10 55 -8 53 -10 63 -17 95 -8 34 -18 93 -22 115 -1 8 -5 30
-9 48 -4 19 -9 43 -10 55 -12 107 -96 355 -139 410 -19 23 -27 21 -28 -8z
m-20 -1072 c-9 -35 -16 -73 -24 -128 -2 -11 -4 -21 -5 -22 -2 -2 -4 -7 -5 -13
-1 -5 -3 -11 -5 -12 -2 -3 -3 -8 -19 -73 -19 -76 -99 -300 -146 -410 -50 -116
-154 -325 -205 -410 -16 -27 -33 -57 -37 -65 -4 -8 -22 -36 -40 -62 -18 -26
-33 -50 -33 -53 0 -5 -102 -150 -149 -210 -17 -22 -34 -45 -38 -50 -24 -33
-126 -149 -178 -202 -49 -51 -68 -64 -100 -68 -22 -4 -48 -8 -57 -11 -16 -5
-39 -10 -88 -19 -14 -3 -40 -9 -59 -15 -19 -5 -30 -6 -25 -1 5 4 50 43 99 87
101 88 314 299 392 389 28 33 65 76 82 95 44 49 157 209 204 288 22 37 43 69
46 72 15 13 112 208 161 325 5 11 21 54 35 95 14 41 28 82 32 90 3 8 7 17 8
20 1 3 4 12 8 20 5 13 35 96 78 220 41 116 63 169 69 165 5 -3 4 -22 -1 -42z"/>
</g>
</svg>
